<svg width="27" height="27" viewBox="0 0 27 27" fill="none" xmlns="http://www.w3.org/2000/svg">
<path d="M13.5 18.9844C15.83 18.9844 17.7188 17.0956 17.7188 14.7656C17.7188 12.4357 15.83 10.5469 13.5 10.5469C11.17 10.5469 9.28125 12.4357 9.28125 14.7656C9.28125 17.0956 11.17 18.9844 13.5 18.9844Z" stroke="#008080" stroke-width="1.5" stroke-linecap="round" stroke-linejoin="round"/>
<path d="M20.6719 12.2344C21.6546 12.2327 22.6241 12.4607 23.503 12.9002C24.382 13.3397 25.1461 13.9785 25.7344 14.7656" stroke="#008080" stroke-width="1.5" stroke-linecap="round" stroke-linejoin="round"/>
<path d="M1.26562 14.7656C1.85393 13.9785 2.61803 13.3397 3.49698 12.9002C4.37594 12.4607 5.34543 12.2327 6.32812 12.2344" stroke="#008080" stroke-width="1.5" stroke-linecap="round" stroke-linejoin="round"/>
<path d="M7.4248 22.7815C7.98044 21.6436 8.8445 20.6846 9.91856 20.0138C10.9926 19.343 12.2335 18.9873 13.4998 18.9873C14.7661 18.9873 16.007 19.343 17.0811 20.0138C18.1551 20.6846 19.0192 21.6436 19.5748 22.7815" stroke="#008080" stroke-width="1.5" stroke-linecap="round" stroke-linejoin="round"/>
<path d="M6.32813 12.2344C5.68756 12.235 5.06003 12.0534 4.51887 11.7106C3.9777 11.3679 3.54526 10.8782 3.27206 10.2988C2.99885 9.7194 2.89618 9.07423 2.97604 8.43865C3.05589 7.80307 3.31497 7.20335 3.72301 6.70955C4.13104 6.21574 4.67118 5.84826 5.28031 5.65004C5.88944 5.45181 6.54241 5.43103 7.16291 5.59012C7.78341 5.74921 8.34583 6.0816 8.78444 6.54846C9.22305 7.01531 9.51974 7.59735 9.63985 8.22656" stroke="#008080" stroke-width="1.5" stroke-linecap="round" stroke-linejoin="round"/>
<path d="M17.3604 8.22656C17.4805 7.59735 17.7772 7.01531 18.2158 6.54846C18.6544 6.0816 19.2168 5.74921 19.8373 5.59012C20.4578 5.43103 21.1108 5.45181 21.7199 5.65004C22.329 5.84826 22.8692 6.21574 23.2772 6.70955C23.6852 7.20335 23.9443 7.80307 24.0242 8.43865C24.104 9.07423 24.0013 9.7194 23.7281 10.2988C23.4549 10.8782 23.0225 11.3679 22.4813 11.7106C21.9402 12.0534 21.3126 12.235 20.6721 12.2344" stroke="#008080" stroke-width="1.5" stroke-linecap="round" stroke-linejoin="round"/>
</svg>
