<svg width="27" height="27" viewBox="0 0 27 27" fill="none" xmlns="http://www.w3.org/2000/svg">
<path d="M11.8125 14.625H3.9375C3.6 14.625 3.375 14.85 3.375 15.1875V23.0625C3.375 23.4 3.6 23.625 3.9375 23.625H11.8125C12.15 23.625 12.375 23.4 12.375 23.0625V15.1875C12.375 14.85 12.15 14.625 11.8125 14.625ZM11.25 22.5H4.5V15.75H11.25V22.5ZM11.8125 3.375H3.9375C3.6 3.375 3.375 3.6 3.375 3.9375V11.8125C3.375 12.15 3.6 12.375 3.9375 12.375H11.8125C12.15 12.375 12.375 12.15 12.375 11.8125V3.9375C12.375 3.6 12.15 3.375 11.8125 3.375ZM11.25 11.25H4.5V4.5H11.25V11.25ZM23.0625 3.375H15.1875C14.85 3.375 14.625 3.6 14.625 3.9375V11.8125C14.625 12.15 14.85 12.375 15.1875 12.375H23.0625C23.4 12.375 23.625 12.15 23.625 11.8125V3.9375C23.625 3.6 23.4 3.375 23.0625 3.375ZM22.5 11.25H15.75V4.5H22.5V11.25ZM23.0625 18.5625H19.6875V15.1875C19.6875 14.85 19.4625 14.625 19.125 14.625C18.7875 14.625 18.5625 14.85 18.5625 15.1875V18.5625H15.1875C14.85 18.5625 14.625 18.7875 14.625 19.125C14.625 19.4625 14.85 19.6875 15.1875 19.6875H18.5625V23.0625C18.5625 23.4 18.7875 23.625 19.125 23.625C19.4625 23.625 19.6875 23.4 19.6875 23.0625V19.6875H23.0625C23.4 19.6875 23.625 19.4625 23.625 19.125C23.625 18.7875 23.4 18.5625 23.0625 18.5625Z" fill="#008080"/>
</svg>
