<svg width="36" height="36" viewBox="0 0 36 36" fill="none" xmlns="http://www.w3.org/2000/svg">
<path d="M18.3536 10.1417L16.3712 8.89139C16.0063 8.66121 15.5239 8.77046 15.2937 9.1354L8.62523 19.7081C8.39505 20.073 8.5043 20.5555 8.86925 20.7857L10.8516 22.036C11.2166 22.2662 11.699 22.1569 11.9292 21.792L18.5976 11.2193C18.8278 10.8543 18.7186 10.3719 18.3536 10.1417Z" stroke="#008080" stroke-width="1.5" stroke-linecap="round" stroke-linejoin="round"/>
<path d="M26.944 15.5597L24.9616 14.3094C24.5966 14.0792 24.1142 14.1884 23.884 14.5534L17.2156 25.1261C16.9854 25.491 17.0946 25.9735 17.4596 26.2036L19.442 27.454C19.8069 27.6842 20.2893 27.5749 20.5195 27.21L27.188 16.6373C27.4182 16.2723 27.3089 15.7899 26.944 15.5597Z" stroke="#008080" stroke-width="1.5" stroke-linecap="round" stroke-linejoin="round"/>
<path d="M26.3545 17.959L28.3369 19.2093C28.5121 19.3199 28.6363 19.4955 28.6821 19.6976C28.7278 19.8996 28.6914 20.1116 28.5809 20.2869L24.4131 26.8948C24.3026 27.0701 24.1269 27.1942 23.9249 27.24C23.7228 27.2858 23.5108 27.2494 23.3355 27.1388L21.3532 25.8885" stroke="#008080" stroke-width="1.5" stroke-linecap="round" stroke-linejoin="round"/>
<path d="M9.45874 18.3867L7.47636 17.1363C7.3011 17.0258 7.17694 16.8502 7.13118 16.6481C7.08541 16.446 7.1218 16.234 7.23234 16.0588L11.4001 9.45083C11.5107 9.27558 11.6863 9.15141 11.8884 9.10565C12.0904 9.05989 12.3024 9.09628 12.4777 9.20682L14.4601 10.4571" stroke="#008080" stroke-width="1.5" stroke-linecap="round" stroke-linejoin="round"/>
<path d="M15.2637 16.5059L20.55 19.8401" stroke="#008080" stroke-width="1.5" stroke-linecap="round" stroke-linejoin="round"/>
<path d="M26.4971 23.5908L27.8187 24.4244" stroke="#008080" stroke-width="1.5" stroke-linecap="round" stroke-linejoin="round"/>
<path d="M7.99463 11.9209L9.31622 12.7545" stroke="#008080" stroke-width="1.5" stroke-linecap="round" stroke-linejoin="round"/>
</svg>
