<svg width="27" height="27" viewBox="0 0 27 27" fill="none" xmlns="http://www.w3.org/2000/svg">
<path d="M7.55156 15.1875L3.375 18.5625V5.0625C3.375 4.83872 3.46389 4.62411 3.62213 4.46588C3.78036 4.30764 3.99497 4.21875 4.21875 4.21875H17.7188C17.9425 4.21875 18.1571 4.30764 18.3154 4.46588C18.4736 4.62411 18.5625 4.83872 18.5625 5.0625V14.3438C18.5625 14.5675 18.4736 14.7821 18.3154 14.9404C18.1571 15.0986 17.9425 15.1875 17.7188 15.1875H7.55156Z" stroke="#008080" stroke-width="1.5" stroke-linecap="round" stroke-linejoin="round"/>
<path d="M8.4375 15.1875V19.4062C8.4375 19.63 8.52639 19.8446 8.68463 20.0029C8.84286 20.1611 9.05747 20.25 9.28125 20.25H19.4484L23.625 23.625V10.125C23.625 9.90122 23.5361 9.68661 23.3779 9.52838C23.2196 9.37014 23.005 9.28125 22.7812 9.28125H18.5625" stroke="#008080" stroke-width="1.5" stroke-linecap="round" stroke-linejoin="round"/>
</svg>
