<svg width="27" height="27" viewBox="0 0 27 27" fill="none" xmlns="http://www.w3.org/2000/svg">
<path d="M13.4893 7.59375C15.1202 7.59375 16.4424 6.27159 16.4424 4.64062C16.4424 3.00966 15.1202 1.6875 13.4893 1.6875C11.8583 1.6875 10.5361 3.00966 10.5361 4.64062C10.5361 6.27159 11.8583 7.59375 13.4893 7.59375Z" stroke="#008080" stroke-width="1.5" stroke-linecap="round" stroke-linejoin="round"/>
<path d="M16.2315 14.2066L19.9018 17.0543C20.1444 17.2563 20.4538 17.3603 20.7692 17.3459C21.0845 17.3315 21.3832 17.1997 21.6064 16.9765C21.8296 16.7533 21.9614 16.4546 21.9758 16.1393C21.9902 15.8239 21.8862 15.5145 21.6842 15.2719L17.5076 9.90352C17.313 9.7069 17.0814 9.55071 16.8262 9.44391C16.571 9.33712 16.2972 9.28184 16.0205 9.28125H10.958C10.3965 9.28426 9.85867 9.50773 9.46037 9.90352L5.2838 15.2719C5.06634 15.5133 4.95004 15.829 4.95898 16.1538C4.96792 16.4786 5.10142 16.7875 5.33183 17.0166C5.56225 17.2456 5.87193 17.3773 6.19676 17.3843C6.52158 17.3913 6.83667 17.2732 7.07677 17.0543L10.7471 14.2066L7.81505 23.4457C7.74442 23.5967 7.70421 23.7601 7.69672 23.9266C7.68923 24.0931 7.71462 24.2594 7.77142 24.4161C7.82822 24.5728 7.91534 24.7168 8.02778 24.8399C8.14023 24.9629 8.2758 25.0626 8.42677 25.1332C8.57774 25.2038 8.74115 25.244 8.90765 25.2515C9.07416 25.259 9.24052 25.2336 9.39721 25.1768C9.55391 25.12 9.69789 25.0329 9.82092 24.9205C9.94396 24.808 10.0436 24.6725 10.1143 24.5215L13.4893 19.2059L16.8643 24.5215C16.9302 24.679 17.0273 24.8216 17.1498 24.9407C17.2723 25.0597 17.4176 25.1527 17.577 25.2141C17.7364 25.2754 17.9066 25.3039 18.0773 25.2978C18.248 25.2916 18.4156 25.251 18.5702 25.1784C18.7248 25.1057 18.863 25.0025 18.9767 24.875C19.0903 24.7475 19.177 24.5983 19.2314 24.4364C19.2859 24.2745 19.307 24.1033 19.2935 23.933C19.28 23.7628 19.2322 23.597 19.1529 23.4457L16.2315 14.2066Z" stroke="#008080" stroke-width="1.5" stroke-linecap="round" stroke-linejoin="round"/>
</svg>
